<?xml version="1.0" standalone="no"?>
<!DOCTYPE svg PUBLIC "-//W3C//DTD SVG 20010904//EN"
 "http://www.w3.org/TR/2001/REC-SVG-20010904/DTD/svg10.dtd">
<svg version="1.0" xmlns="http://www.w3.org/2000/svg"
 width="683.000000pt" height="683.000000pt" viewBox="0 0 683.000000 683.000000"
 preserveAspectRatio="xMidYMid meet">

<g transform="translate(0.000000,683.000000) scale(0.100000,-0.100000)"
fill="#000000" stroke="none">
<path d="M3185 6799 c-1052 -70 -2015 -631 -2599 -1514 -300 -453 -477 -936
-542 -1480 -23 -193 -23 -580 0 -770 98 -800 442 -1501 1003 -2045 l108 -105
-102 105 -101 105 44 40 c24 22 44 45 44 52 0 7 22 36 50 64 28 28 50 56 50
63 1 17 36 56 51 56 10 0 10 3 1 12 -18 18 -15 28 9 28 12 0 23 8 26 20 3 11
14 20 24 20 10 0 20 4 23 9 15 23 207 33 249 13 15 -8 54 -17 86 -22 70 -10
130 -46 150 -90 7 -17 31 -43 52 -57 39 -25 43 -32 40 -65 -1 -9 5 -30 13 -47
9 -16 16 -38 16 -48 1 -22 44 -73 63 -73 7 0 17 -4 23 -10 14 -14 80 6 88 26
4 11 14 14 27 11 12 -3 28 0 36 9 8 8 28 14 45 14 19 0 28 4 26 12 -3 7 -13
13 -24 13 -12 0 -20 8 -22 23 -2 14 -10 22 -23 22 -10 0 -18 -3 -17 -7 9 -36
-48 -83 -102 -83 -29 0 -32 2 -26 25 6 23 4 26 -21 23 -25 -3 -28 1 -34 37 -5
31 -3 47 13 72 18 30 18 34 2 58 -9 14 -25 25 -35 25 -10 0 -22 8 -28 17 -8
15 -13 16 -30 6 -33 -20 -54 -17 -48 8 4 15 0 23 -14 26 -10 3 -19 12 -19 19
0 8 -7 14 -15 14 -8 0 -15 9 -15 21 0 16 -4 19 -20 14 -10 -3 -30 0 -42 6 -13
7 -31 12 -41 10 -9 -1 -20 6 -24 16 -3 10 -13 26 -22 36 -12 15 -13 22 -2 39
7 11 11 21 9 22 -2 1 -11 8 -21 15 -15 12 -20 10 -40 -11 -13 -14 -34 -27 -48
-30 -13 -3 -31 -8 -40 -12 -12 -5 -20 1 -29 23 -6 16 -9 34 -6 39 6 10 -53 26
-62 17 -3 -3 3 -14 13 -25 20 -22 14 -33 -22 -45 -17 -5 -29 0 -47 20 -27 29
-26 67 1 40 17 -17 33 -20 33 -5 0 6 -6 10 -14 10 -8 0 -18 9 -21 20 -9 29
-24 25 -36 -10 -9 -23 -17 -30 -38 -30 -37 0 -43 8 -26 34 7 11 17 43 21 71
l7 49 -24 -16 c-16 -10 -31 -13 -47 -7 -14 5 -22 5 -22 -2 0 -6 -9 -8 -20 -4
-26 8 -26 -9 2 -35 12 -11 17 -20 10 -20 -18 0 -45 48 -39 70 6 25 -24 28 -47
5 -15 -16 -50 -21 -44 -7 10 25 88 81 123 88 57 11 125 6 151 -11 13 -8 32
-15 43 -15 39 0 58 -78 21 -87 -21 -6 -24 -12 -14 -37 9 -24 32 -19 58 11 15
18 25 23 30 15 4 -7 0 -15 -8 -18 -9 -3 -16 -13 -16 -21 0 -11 6 -10 29 6 16
12 40 21 54 21 26 0 45 29 32 50 -7 11 15 13 39 4 12 -5 13 -9 3 -24 -14 -24
-3 -37 18 -20 26 21 105 22 150 0 22 -10 61 -21 87 -24 40 -5 48 -3 53 13 3
11 17 26 30 35 22 15 25 14 34 -2 9 -14 12 -14 20 -3 6 10 14 11 26 3 17 -9
17 -10 -2 -16 -26 -8 -37 -32 -20 -43 7 -4 30 -13 52 -20 l40 -12 -37 2 c-21
2 -38 0 -38 -3 0 -6 76 -35 92 -35 3 0 10 -3 14 -7 4 -5 15 -8 25 -8 9 0 28
-12 41 -27 29 -33 65 -56 78 -48 5 3 11 1 15 -5 4 -6 11 -8 16 -5 5 4 9 1 9
-5 0 -7 -8 -9 -22 -5 -19 6 -17 2 10 -21 22 -19 31 -33 26 -46 -6 -20 6 -24
23 -7 8 8 14 5 23 -10 6 -12 15 -19 20 -16 5 3 11 1 14 -4 4 -5 2 -12 -4 -16
-6 -4 -7 -12 -3 -18 5 -7 8 -23 8 -37 0 -15 6 -25 15 -25 18 0 90 -102 90
-128 0 -11 5 -17 13 -14 7 3 21 -1 32 -9 10 -8 17 -14 14 -15 -2 0 -17 -2 -33
-4 -15 -2 -30 -6 -33 -8 -2 -3 10 -26 28 -51 21 -32 29 -54 25 -69 -4 -16 2
-28 20 -44 16 -14 24 -28 21 -38 -8 -21 2 -45 19 -45 8 0 14 -7 14 -15 0 -8 5
-15 11 -15 5 0 9 -10 7 -23 -3 -19 1 -22 29 -21 17 0 30 -3 28 -6 -7 -12 42
-63 54 -56 6 4 9 12 6 17 -4 5 0 9 8 9 18 0 29 -24 21 -45 -4 -8 3 -34 14 -58
10 -23 23 -53 27 -67 4 -14 23 -43 41 -64 19 -22 34 -43 34 -48 0 -8 56 -82
132 -177 21 -25 49 -65 64 -88 14 -24 30 -43 35 -43 5 0 9 -5 9 -11 0 -16 61
-78 95 -97 l30 -16 -35 -6 c-41 -7 300 -24 345 -18 17 3 -20 6 -82 7 l-112 1
24 24 c13 13 30 24 37 23 36 -1 48 4 48 23 0 15 7 20 26 20 15 0 23 4 19 11
-4 6 2 13 14 16 12 3 21 9 21 14 0 5 13 15 30 24 21 11 31 25 36 50 3 19 12
35 19 35 18 0 39 35 60 99 10 30 26 63 35 73 29 32 47 89 60 188 7 52 16 99
21 105 5 5 9 20 9 33 0 13 5 33 11 44 9 16 8 34 -1 73 -10 42 -25 65 -81 125
-38 40 -69 70 -69 65 0 -4 -10 4 -21 19 -12 15 -18 30 -14 34 4 4 13 -2 21
-12 8 -11 14 -16 14 -10 0 5 5 2 10 -6 7 -12 12 -12 22 -2 6 6 19 12 27 12 11
0 17 11 18 36 1 30 -1 34 -18 29 -12 -4 -21 -1 -25 8 -3 9 -13 13 -25 10 -10
-3 -19 0 -19 6 0 6 10 11 22 11 31 0 14 13 -22 15 -16 2 -30 -1 -30 -6 0 -17
-19 -9 -25 12 -8 25 -61 59 -92 59 -14 0 -23 6 -23 15 0 17 -21 20 -37 4 -7
-7 -13 -8 -17 0 -11 17 56 30 72 14 7 -7 20 -13 28 -13 8 0 14 -4 14 -10 0 -5
5 -10 10 -10 6 0 10 6 10 14 0 8 14 17 33 21 50 10 97 28 97 37 0 4 3 8 8 8 4
0 7 -16 8 -36 0 -20 7 -40 15 -44 10 -7 11 -12 3 -20 -8 -8 -14 -8 -18 -1 -7
11 -36 4 -36 -10 0 -5 9 -9 19 -9 11 0 22 -6 24 -12 8 -20 24 8 31 55 9 52 15
61 32 46 11 -9 16 -6 25 14 9 20 19 25 45 25 19 0 34 -5 34 -12 0 -6 4 -5 9 3
8 12 12 12 25 2 12 -10 23 -11 47 -2 21 7 36 8 44 1 6 -5 21 -7 33 -3 13 3 22
1 22 -6 0 -6 6 -11 13 -11 8 0 22 -9 32 -20 27 -30 38 -25 76 29 24 36 48 57
87 76 l54 27 29 -32 c16 -17 29 -34 29 -38 0 -4 8 -12 18 -19 14 -8 18 -19 14
-43 -4 -31 -4 -32 18 -20 46 24 179 -30 205 -84 24 -48 43 -69 55 -61 7 4 10
0 8 -11 -2 -14 3 -19 16 -17 22 2 59 -25 64 -47 8 -37 75 -55 222 -61 25 -1
56 2 70 6 14 5 51 9 82 11 50 2 93 15 108 33 3 3 29 23 59 43 41 29 58 35 68
27 17 -15 41 4 45 34 3 24 19 30 118 46 36 5 76 13 89 17 23 7 24 6 18 -34 -8
-47 5 -62 32 -38 10 9 25 16 33 16 37 0 48 12 48 52 0 22 -4 47 -9 56 -15 28
20 63 52 54 31 -8 31 -8 22 -45 -9 -35 9 -57 44 -55 31 3 41 14 41 51 0 17 -5
27 -15 27 -21 0 -19 12 6 44 12 15 25 42 29 61 7 33 7 34 -14 19 -13 -8 -25
-11 -29 -8 -3 3 -3 -4 0 -16 5 -17 2 -21 -13 -18 -15 2 -18 -2 -16 -22 4 -21
2 -22 -12 -11 -17 15 -22 56 -7 65 10 7 3 46 -9 46 -16 0 -32 -31 -28 -55 6
-29 -7 -42 -26 -26 -9 7 -18 7 -32 -3 -27 -18 -98 2 -84 24 5 8 7 37 4 65 -6
54 10 115 26 99 6 -6 5 -23 -2 -46 -9 -29 -8 -41 2 -53 16 -19 40 -3 40 26 0
20 15 25 25 9 11 -17 38 -12 31 6 -4 11 1 18 14 21 24 6 23 31 -2 47 -13 8
-23 8 -37 -1 -16 -10 -22 -9 -32 3 -7 8 -18 13 -25 10 -20 -8 -36 30 -29 65 9
38 29 26 21 -13 -5 -27 -4 -29 9 -18 9 7 14 19 11 26 -3 7 3 14 12 16 14 3 11
9 -14 33 -27 26 -30 36 -28 78 1 27 5 51 8 54 3 4 6 17 6 30 0 12 5 23 10 23
6 0 10 -7 10 -16 0 -17 38 -57 58 -61 5 -1 12 7 15 17 3 11 1 20 -5 20 -5 0
-7 4 -3 9 3 5 1 12 -5 16 -21 13 -9 25 25 25 19 0 35 4 35 10 0 5 -13 7 -30 4
-16 -4 -30 -3 -30 0 0 17 31 37 48 32 14 -5 20 3 31 39 7 25 11 49 7 52 -8 8
-36 -17 -36 -33 0 -8 -7 -14 -15 -14 -18 0 -19 12 -3 28 9 9 9 18 0 37 -12 25
-45 34 -57 15 -10 -16 -42 -11 -49 8 -3 9 -11 25 -18 34 -16 22 -8 29 33 31
30 2 57 27 28 27 -6 0 -17 7 -23 15 -9 12 -18 13 -44 6 -29 -9 -33 -8 -28 5 3
9 6 20 6 25 0 6 12 22 28 36 18 18 21 24 9 20 -10 -4 -27 -7 -37 -7 -12 0 -20
-11 -25 -32 -6 -31 -7 -32 -15 -11 -5 13 -18 23 -29 23 -21 0 -33 22 -25 45 9
23 42 18 47 -7 4 -20 4 -19 6 5 1 25 4 27 41 27 46 0 90 -18 90 -37 0 -7 7
-13 15 -13 21 0 19 -18 -2 -22 -14 -3 -11 -8 14 -21 41 -22 60 -23 43 -2 -7 9
-10 18 -7 21 11 11 58 -6 64 -24 4 -9 19 -30 35 -47 25 -26 28 -35 23 -68 -6
-34 -3 -41 34 -78 24 -24 47 -39 55 -36 8 3 34 -11 59 -34 25 -21 50 -39 55
-39 6 0 14 -9 17 -20 3 -11 11 -20 16 -20 5 0 9 -7 9 -15 0 -8 4 -15 9 -15 5
0 18 -15 30 -33 11 -17 34 -50 51 -71 17 -22 28 -46 25 -54 -4 -11 1 -13 25
-9 35 7 35 6 14 -36 -33 -65 7 -9 58 83 359 640 502 1376 408 2095 -11 83 -20
153 -20 157 0 4 -17 1 -38 -6 -21 -8 -94 -28 -163 -45 -68 -18 -194 -52 -279
-77 -128 -36 -261 -63 -385 -77 -11 -1 -24 -5 -30 -8 -5 -4 -26 -9 -45 -13
-46 -8 -75 11 -66 42 9 28 37 28 54 1 17 -26 53 -22 139 14 32 14 85 33 117
43 32 11 64 27 70 37 6 9 22 17 37 17 14 0 106 21 205 46 208 53 284 67 337
60 l38 -4 -6 41 c-15 85 -65 276 -105 397 -252 760 -749 1393 -1430 1823 -138
86 -412 225 -559 282 -471 182 -964 257 -1466 224z m379 -138 c-3 -3 -9 0 -13
8 -6 9 -10 7 -14 -8 -3 -12 -13 -21 -22 -21 -12 0 -16 8 -13 33 2 23 7 31 20
29 9 -1 20 3 24 10 5 8 10 2 16 -17 4 -16 5 -31 2 -34z m1500 -376 c11 -8 28
-15 38 -15 10 0 18 -5 18 -11 0 -6 -7 -8 -17 -4 -10 3 -39 11 -66 16 -26 6
-45 15 -41 20 8 14 47 10 68 -6z m-539 -30 c17 -4 44 -13 62 -21 17 -8 37 -14
45 -14 8 0 18 -3 22 -7 4 -4 19 -9 34 -11 14 -2 32 -8 39 -13 6 -6 27 -11 46
-12 30 -2 34 -4 27 -23 -5 -11 -4 -28 1 -37 11 -18 -5 -25 -16 -7 -3 6 -17 10
-31 10 -14 0 -39 8 -57 17 -18 9 -36 18 -42 19 -22 5 -140 24 -147 24 -5 0 -8
9 -8 20 0 10 -8 24 -18 29 -19 10 -142 8 -160 -3 -6 -3 -13 -2 -17 4 -7 11 10
20 49 24 14 1 29 6 33 10 8 8 87 3 138 -9z m705 -41 c0 -8 -4 -12 -10 -9 -5 3
-10 10 -10 16 0 5 5 9 10 9 6 0 10 -7 10 -16z m-1350 -8 c0 -11 -19 -15 -25
-6 -3 5 1 10 9 10 9 0 16 -2 16 -4z m1400 -6 c8 -5 11 -12 8 -16 -10 -9 -38 3
-38 16 0 12 10 13 30 0z m186 -97 c-3 -3 -19 -2 -36 2 -25 5 -29 10 -20 21 10
11 16 11 36 -3 14 -9 23 -18 20 -20z m-940 14 c4 -4 24 -4 45 -1 32 5 41 2 61
-19 13 -13 39 -28 58 -32 19 -4 47 -14 62 -21 15 -8 44 -14 65 -14 21 0 47 -7
57 -15 11 -8 30 -15 43 -15 13 0 23 -4 23 -9 0 -5 -35 -12 -77 -16 -43 -4
-100 -12 -128 -17 -27 -5 -77 -10 -110 -11 -53 -2 -61 0 -70 20 -10 24 -57 39
-105 35 -34 -4 -48 -3 -97 4 -28 4 -43 2 -43 -5 0 -6 -7 -8 -15 -5 -9 4 -15 0
-15 -10 0 -9 6 -16 14 -16 8 0 17 -6 19 -12 4 -10 8 -10 14 -1 6 8 15 6 32 -8
13 -11 21 -22 18 -26 -4 -3 -73 -12 -154 -19 -154 -14 -217 -16 -195 -7 36 14
-21 79 -61 69 -16 -4 -29 0 -38 10 -11 13 -10 15 6 12 28 -5 30 21 2 31 -39
15 -52 71 -17 71 11 0 20 -5 20 -11 0 -5 5 -7 10 -4 6 3 10 -1 10 -9 0 -9 7
-16 15 -16 8 0 15 -4 15 -10 0 -5 11 -10 24 -10 14 0 28 -4 31 -10 3 -5 16
-10 27 -10 12 0 29 -6 37 -14 9 -7 36 -20 61 -29 25 -8 53 -18 62 -22 14 -5
16 -2 14 22 -2 16 -10 29 -20 31 -20 4 -21 22 -1 22 9 0 20 11 25 25 8 21 16
25 48 25 21 0 43 5 50 12 7 7 15 8 24 1 7 -5 41 -18 76 -28 34 -10 67 -24 73
-32 14 -16 41 -17 57 -1 19 19 15 25 -33 39 -25 7 -45 19 -45 25 0 13 -45 28
-72 25 -10 -1 -18 3 -18 8 0 12 104 10 116 -2z m392 -14 c6 -19 -45 -35 -70
-22 -20 11 -20 11 3 24 29 16 61 15 67 -2z m49 -29 c-9 -9 -28 6 -21 18 4 6
10 6 17 -1 6 -6 8 -13 4 -17z m192 11 c19 3 45 -3 64 -14 19 -11 45 -16 62
-14 24 3 38 -3 69 -31 38 -36 39 -36 133 -36 108 0 137 -10 203 -70 42 -38 44
-41 23 -46 -28 -8 -29 -25 -3 -49 11 -10 20 -29 20 -42 0 -22 13 -28 48 -24 7
1 15 -5 18 -14 4 -8 29 -26 58 -40 37 -18 55 -33 65 -57 8 -18 22 -45 33 -60
10 -14 18 -31 18 -37 0 -13 -52 -41 -77 -41 -10 0 -33 -14 -52 -30 -30 -28
-37 -30 -84 -25 -78 8 -81 9 -121 33 -20 12 -45 22 -56 22 -22 0 -28 15 -37
87 l-6 55 34 -7 34 -6 -29 20 c-37 25 -46 42 -51 91 -7 62 -29 106 -64 121
-17 8 -34 22 -37 32 -4 14 -12 17 -35 12 -27 -6 -29 -5 -29 23 0 17 6 33 13
35 6 3 -7 6 -30 6 -24 1 -43 6 -43 11 0 7 -19 9 -50 6 -28 -3 -63 0 -78 5 -15
6 -61 11 -102 11 -67 1 -76 3 -77 19 -2 23 29 41 65 39 42 -3 45 -1 32 15 -11
14 -10 14 13 6 14 -5 39 -8 56 -6z m-3509 -85 c0 -5 -2 -10 -4 -10 -3 0 -8 5
-11 10 -3 6 -1 10 4 10 6 0 11 -4 11 -10z m-415 -23 c-7 -16 -45 -31 -45 -17
0 10 42 42 47 36 2 -2 1 -10 -2 -19z m2770 -77 c3 -5 -1 -10 -9 -10 -9 0 -16
5 -16 10 0 6 4 10 9 10 6 0 13 -4 16 -10z m1122 4 c-3 -3 -12 -4 -19 -1 -8 3
-5 6 6 6 11 1 17 -2 13 -5z m239 -341 c17 -23 18 -83 1 -83 -7 0 -17 -8 -24
-19 -28 -45 -93 -24 -93 32 0 61 84 112 116 70z m-1656 -200 c0 -7 -6 -13 -13
-13 -8 0 -23 -11 -36 -23 -18 -20 -19 -26 -8 -35 10 -9 18 -7 33 7 17 15 22
16 33 3 9 -9 10 -17 4 -21 -6 -3 -12 -18 -15 -32 l-5 -25 40 13 c32 11 44 11
68 1 16 -7 29 -16 29 -19 0 -4 19 -5 41 -2 32 5 44 2 51 -11 5 -9 16 -16 23
-16 8 0 15 -9 15 -20 0 -22 25 -27 34 -7 4 6 4 -5 2 -27 -5 -35 -4 -37 9 -20
8 11 14 14 15 7 0 -7 6 -13 13 -13 13 0 67 -73 67 -91 0 -5 -5 -9 -11 -9 -5 0
-7 -5 -4 -10 4 -6 10 -8 15 -5 5 3 13 -2 17 -10 8 -14 12 -14 39 0 39 20 51
19 66 -5 7 -11 21 -20 30 -20 10 0 18 -7 18 -15 0 -8 6 -15 14 -15 8 0 29 -24
46 -52 18 -29 41 -61 51 -71 28 -26 24 -34 -21 -41 -34 -5 -39 -9 -31 -23 10
-19 1 -30 -41 -52 -16 -8 -28 -19 -28 -26 0 -6 -25 -37 -56 -70 -31 -32 -72
-84 -92 -114 -19 -31 -48 -75 -64 -98 -15 -23 -28 -46 -28 -52 0 -7 -7 -23
-16 -36 -20 -31 -25 -73 -11 -105 6 -14 12 -38 14 -55 3 -16 10 -36 17 -43 9
-10 14 -5 24 22 7 19 21 36 33 39 12 3 18 10 15 15 -3 5 1 15 8 21 11 9 23 8
51 -8 l38 -20 -47 -22 c-48 -24 -63 -46 -23 -34 12 4 46 21 75 37 32 18 59 27
70 23 15 -5 14 -9 -8 -25 -44 -34 -130 -72 -151 -67 -10 3 -19 1 -19 -4 0 -9
38 -32 55 -34 6 -1 18 -5 28 -9 9 -5 61 -6 115 -4 73 3 105 9 127 23 37 23
121 110 123 127 6 44 4 128 -2 156 -5 22 -4 38 3 45 6 6 11 19 11 28 0 9 7 22
15 29 12 10 15 10 15 -3 0 -9 6 -20 13 -24 8 -4 33 -41 57 -81 23 -40 51 -78
61 -85 10 -7 29 -42 42 -77 14 -36 45 -104 70 -152 73 -143 80 -252 22 -342
-20 -30 -80 -67 -98 -60 -8 3 -20 -2 -27 -11 -7 -8 -21 -15 -31 -15 -11 0 -19
-4 -19 -10 0 -5 -12 -10 -27 -10 -39 0 -49 -9 -62 -55 -14 -52 -15 -47 19 -83
70 -74 11 -174 -127 -216 -30 -10 -30 11 1 103 13 38 21 72 19 75 -3 3 -16 -8
-29 -23 -51 -61 -164 -89 -227 -56 -27 14 -29 13 -74 -30 l-46 -45 -103 2
c-72 2 -105 7 -109 16 -2 6 -11 12 -20 12 -9 0 -30 16 -48 35 -18 20 -41 35
-55 35 -46 0 -95 -172 -64 -226 11 -18 11 -18 12 4 0 15 6 22 19 22 11 0 26 3
35 6 11 4 19 -2 25 -19 5 -14 14 -28 19 -31 16 -10 143 -26 228 -30 33 -1 66
-6 73 -11 9 -5 17 -2 22 7 7 13 20 15 63 9 14 -2 -26 -30 -43 -31 -8 0 -28
-11 -45 -24 -17 -13 -55 -36 -84 -51 -29 -15 -55 -31 -58 -36 -3 -5 -43 -9
-88 -9 -61 0 -87 -4 -96 -15 -7 -8 -27 -17 -46 -21 -19 -3 -34 -10 -34 -15 0
-5 -11 -9 -25 -9 -38 0 -30 21 25 65 33 26 50 48 50 62 0 21 -4 23 -40 20 -22
-2 -40 0 -40 5 0 20 -38 5 -58 -22 -13 -16 -28 -30 -34 -30 -6 0 -24 -14 -39
-31 -15 -17 -32 -28 -37 -25 -6 3 -12 1 -14 -4 -4 -13 -94 -23 -111 -13 -17
10 -91 3 -99 -10 -6 -9 -8 -9 -8 1 0 6 -7 12 -15 12 -8 0 -15 5 -15 10 0 6
-13 10 -30 10 -16 0 -30 5 -30 10 0 6 -8 10 -18 10 -10 0 -25 11 -32 25 -7 14
-19 25 -26 25 -6 0 -12 6 -11 13 1 34 -5 45 -29 51 -17 5 -24 12 -20 22 3 9
-10 31 -34 55 -22 23 -40 36 -40 30 0 -6 -10 -11 -22 -10 -13 0 -17 3 -10 6 6
2 12 11 12 19 0 10 -8 12 -30 8 -27 -6 -30 -4 -30 20 0 14 4 26 8 26 11 0 13
38 2 45 -15 9 1 44 18 38 15 -4 15 -3 0 10 -10 8 -18 20 -18 26 0 7 -4 10 -9
7 -10 -7 -21 17 -21 45 0 10 -5 19 -11 19 -6 0 -8 9 -4 22 6 17 4 20 -9 15 -9
-4 -16 -2 -16 2 0 5 -10 7 -22 5 -13 -2 -17 -2 -10 2 6 3 12 12 12 20 0 8 8
14 18 14 10 0 27 7 39 15 12 8 24 12 26 8 3 -5 32 -8 66 -7 40 0 62 -3 65 -12
3 -9 22 -12 60 -10 44 3 53 1 49 -11 -6 -16 26 -13 122 12 136 36 185 63 267
146 37 38 72 69 78 69 5 0 10 7 10 15 0 8 5 15 10 15 6 0 10 6 9 13 -1 6 -1
20 0 31 1 16 3 16 19 -4 11 -13 24 -20 30 -16 22 13 12 47 -22 82 -20 20 -32
42 -29 50 7 20 16 18 43 -11 13 -14 20 -25 17 -25 -4 0 1 -9 10 -20 21 -24 25
-25 51 -2 19 17 19 19 4 30 -15 11 -14 12 7 6 14 -4 34 -15 45 -25 11 -11 23
-19 28 -19 11 0 10 17 -1 24 -5 4 -8 27 -6 53 2 39 -1 50 -23 72 -15 14 -25
30 -24 35 2 4 -5 15 -15 23 -13 10 -14 16 -6 19 9 4 2 19 -20 46 -68 87 -72
90 -134 93 -35 2 -60 0 -65 -7 -5 -9 -11 -8 -22 1 -10 8 -26 11 -43 6 -53 -13
-68 -16 -123 -25 -51 -7 -117 -27 -180 -53 -14 -6 -35 -12 -46 -13 -12 -2 -37
-9 -57 -17 -22 -10 -38 -12 -45 -5 -6 6 -22 2 -46 -12 -21 -11 -41 -18 -46
-15 -5 3 -12 0 -15 -5 -6 -9 -54 -35 -127 -68 -5 -2 -8 3 -8 11 0 9 6 17 13
20 9 3 7 10 -6 25 -12 13 -15 22 -8 27 22 13 10 25 -23 25 -44 0 -62 28 -65
102 -1 48 2 59 19 68 12 6 20 21 20 36 0 18 9 29 34 40 25 13 32 21 28 36 -6
23 15 40 41 32 12 -4 17 0 17 15 0 21 8 25 44 21 15 -1 18 3 13 20 -3 13 2 38
14 59 29 55 24 93 -8 54 -10 -13 -16 -14 -19 -6 -3 7 -12 9 -20 6 -19 -7 -19
41 1 57 8 7 15 19 15 27 0 7 7 16 15 19 27 11 16 24 -19 21 -25 -1 -32 -6 -28
-17 4 -12 1 -12 -13 2 -17 16 -17 18 -1 42 16 25 16 26 -4 26 -16 0 -20 7 -20
35 0 19 5 35 11 35 12 0 59 50 59 62 0 3 14 20 30 36 32 32 41 66 15 56 -8 -4
-15 -13 -15 -21 0 -8 -4 -12 -9 -8 -5 3 -12 1 -16 -5 -12 -19 -25 -10 -25 18
0 32 19 64 27 45 8 -22 23 -14 23 12 0 27 9 32 26 15 16 -16 74 38 74 68 0 34
29 85 45 79 7 -3 15 3 18 14 3 10 10 19 16 19 7 0 9 -10 5 -26 -10 -39 13 -27
39 21 12 22 25 42 30 43 14 7 -4 21 -18 15 -8 -3 -15 -1 -15 3 0 10 61 49 71
46 4 -1 9 10 12 24 5 27 -10 44 -19 20 -9 -23 -31 -27 -61 -11 -15 8 -22 15
-14 15 8 0 19 7 25 16 13 18 74 25 83 11 3 -6 11 -3 18 6 6 9 24 17 40 19 25
3 31 -1 40 -29 15 -46 29 -54 21 -12 -8 43 13 70 33 45 8 -10 9 -16 1 -21 -17
-10 -11 -33 10 -40 11 -3 20 -13 20 -21 0 -8 7 -14 15 -14 8 0 15 -7 15 -17 0
-15 1 -15 18 0 12 11 22 13 32 7 9 -6 18 -5 23 3 7 9 10 9 14 0 9 -23 25 -14
19 10 -6 25 19 71 35 62 5 -3 6 2 2 11 -6 15 -4 15 21 -1 35 -23 43 -13 17 23
-11 16 -18 32 -14 36 8 8 63 -53 63 -71z m-240 -14 c0 -18 -2 -19 -15 -9 -8 7
-15 16 -15 21 0 5 7 9 15 9 9 0 15 -9 15 -21z m-2832 -30 c-10 -5 -18 -16 -18
-24 0 -15 -18 -30 -27 -22 -8 9 31 56 47 56 12 0 11 -2 -2 -10z m5540 -18 c8
-5 -2 -15 -28 -30 -22 -12 -40 -26 -40 -31 0 -5 -11 -4 -25 2 -33 15 -46 0
-17 -19 12 -9 22 -26 22 -39 0 -23 3 -25 50 -29 8 0 21 -4 28 -9 7 -4 20 -5
30 -2 10 4 26 -2 38 -12 10 -10 27 -21 37 -25 9 -3 17 -14 17 -23 0 -10 5 -14
15 -10 8 3 18 0 22 -7 5 -7 20 -18 35 -24 19 -9 39 -36 68 -93 22 -44 38 -80
35 -80 -3 0 -22 7 -42 15 -43 18 -38 18 -57 0 -13 -14 -18 -13 -40 10 -26 26
-71 34 -78 13 -3 -9 -14 -7 -41 6 -42 19 -40 36 3 36 31 0 70 26 70 46 0 7
-23 15 -52 19 -51 7 -104 29 -121 50 -6 6 -10 6 -14 -2 -7 -18 -23 -16 -23 2
0 8 -9 15 -19 15 -11 0 -26 6 -33 13 -17 17 -63 34 -110 43 -37 6 -38 6 -38
-25 0 -32 -14 -42 -24 -16 -3 8 -14 15 -24 15 -10 0 -22 3 -25 6 -4 4 -22 8
-42 10 -46 4 -57 12 -50 34 4 14 1 16 -20 12 -15 -2 -25 0 -25 7 0 11 25 15
63 12 19 -3 23 15 5 22 -7 2 -28 2 -45 -1 l-33 -5 11 32 c10 29 14 31 63 31
29 0 102 7 162 16 225 33 254 34 292 15z m-5004 -64 c24 -17 13 -57 -15 -57
-19 0 -59 33 -59 49 0 22 49 26 74 8z m-612 -37 c-12 -11 -24 -20 -27 -20 -3
0 -1 9 5 20 6 11 18 20 27 20 14 0 13 -3 -5 -20z m5119 -75 c-4 -5 -6 -20 -5
-32 1 -24 -4 -27 -30 -17 -9 3 -13 10 -10 15 3 5 -2 9 -12 9 -16 0 -43 27 -44
44 0 5 14 6 30 3 23 -5 30 -3 30 9 0 13 4 12 24 -3 13 -10 21 -22 17 -28z
m-2641 -9 c0 -30 -46 -87 -65 -81 -48 15 -46 13 -28 36 58 73 93 89 93 45z
m-2530 -14 c0 -5 -11 -19 -25 -32 -28 -26 -33 -16 -9 18 15 22 34 30 34 14z
m5406 -17 c-9 -9 -16 -13 -16 -8 0 12 22 34 28 28 2 -2 -3 -11 -12 -20z m-186
-16 c0 -4 -7 -6 -15 -3 -8 4 -15 10 -15 15 0 4 7 6 15 3 8 -4 15 -10 15 -15z
m183 -65 c14 -5 13 -8 -1 -25 -21 -24 -39 -24 -52 0 -8 16 -6 20 8 24 27 7 29
7 45 1z m-5013 -24 c0 -5 -5 -10 -11 -10 -5 0 -7 5 -4 10 3 6 8 10 11 10 2 0
4 -4 4 -10z m4834 -19 c3 -5 -12 -8 -34 -7 -22 0 -40 4 -40 8 0 11 68 10 74
-1z m-4694 -12 c0 -6 -6 -9 -14 -6 -8 3 -17 0 -19 -8 -4 -8 4 -15 19 -18 13
-2 24 0 24 5 0 16 18 -2 34 -34 22 -43 20 -49 -10 -37 -35 13 -39 7 -20 -30
25 -47 20 -57 -30 -71 -45 -13 -47 -12 -65 11 -28 36 -33 74 -15 110 19 38 20
59 5 59 -8 0 -8 5 1 15 14 17 90 21 90 4z m5090 -9 c0 -5 -4 -10 -10 -10 -5 0
-10 5 -10 10 0 6 5 10 10 10 6 0 10 -4 10 -10z m-5745 -49 c-19 -38 -28 -41
-14 -5 13 35 20 46 26 41 2 -3 -3 -19 -12 -36z m5595 29 c0 -5 -2 -10 -4 -10
-3 0 -8 5 -11 10 -3 6 -1 10 4 10 6 0 11 -4 11 -10z m-5450 -10 c-8 -5 -19
-10 -25 -10 -5 0 -3 5 5 10 8 5 20 10 25 10 6 0 3 -5 -5 -10z m5194 -6 c9 -3
16 -12 16 -20 0 -17 5 -17 32 -3 25 13 68 -3 68 -25 0 -42 -114 -79 -171 -56
-42 18 -41 63 4 90 37 23 31 22 51 14z m-64 -178 c0 -16 -18 -31 -27 -22 -8 8
5 36 17 36 5 0 10 -6 10 -14z m-1192 -56 c7 -12 8 -20 2 -20 -5 0 -10 -6 -10
-13 0 -14 -35 -47 -49 -47 -5 0 -14 -7 -21 -15 -31 -37 -50 2 -25 49 17 31 58
65 80 66 6 0 16 -9 23 -20z m-4011 -6 c-3 -3 -12 -4 -19 -1 -8 3 -5 6 6 6 11
1 17 -2 13 -5z m-80 -20 c-3 -3 -12 -4 -19 -1 -8 3 -5 6 6 6 11 1 17 -2 13 -5z
m-97 -8 c0 -3 -4 -8 -10 -11 -5 -3 -10 -1 -10 4 0 6 5 11 10 11 6 0 10 -2 10
-4z m5480 -26 c0 -5 -4 -10 -10 -10 -5 0 -10 5 -10 10 0 6 5 10 10 10 6 0 10
-4 10 -10z m-1420 -45 c0 -8 -4 -15 -10 -15 -5 0 -7 7 -4 15 4 8 8 15 10 15 2
0 4 -7 4 -15z m-1428 -40 c0 -5 -5 -11 -11 -13 -6 -2 -11 4 -11 13 0 9 5 15
11 13 6 -2 11 -8 11 -13z m1496 -148 c13 -10 42 -71 42 -87 0 -14 -77 -91
-105 -106 -34 -17 -49 -18 -39 -2 10 15 13 29 20 91 5 41 3 52 -17 73 -24 25
-19 39 16 47 25 5 66 -2 83 -16z m-163 -57 c3 -5 -1 -10 -9 -10 -9 0 -16 -4
-16 -10 0 -5 -4 -10 -9 -10 -5 0 -7 9 -4 20 6 21 28 27 38 10z m-495 -246 c0
-14 -3 -14 -15 -4 -8 7 -15 14 -15 16 0 2 7 4 15 4 8 0 15 -7 15 -16z m1487
-81 c-3 -10 -5 -4 -5 12 0 17 2 24 5 18 2 -7 2 -21 0 -30z m-2100 -49 c2 -6
-9 -11 -27 -11 -31 0 -40 11 -17 20 18 8 40 4 44 -9z m-98 -38 c-13 -11 -69
-14 -69 -4 0 6 3 9 6 6 3 -4 17 0 32 8 18 9 28 10 31 3 1 -6 1 -12 0 -13z m48
-2 c-3 -3 -12 -4 -19 -1 -8 3 -5 6 6 6 11 1 17 -2 13 -5z m413 -38 c87 -28
101 -48 47 -71 -18 -7 -39 -20 -45 -28 -9 -11 -6 -13 18 -9 17 2 30 0 30 -5 0
-10 -53 -43 -71 -43 -6 0 -35 -11 -63 -24 -87 -40 -102 -44 -117 -36 -10 7 -7
14 14 30 57 45 72 111 38 167 -11 17 -17 34 -14 37 14 13 92 4 163 -18z m-200
-36 c0 -5 -8 -14 -18 -19 -14 -8 -18 -6 -19 10 -1 13 5 19 18 19 10 0 19 -4
19 -10z m344 -21 c-3 -5 -10 -7 -15 -3 -5 3 -7 10 -3 15 3 5 10 7 15 3 5 -3 7
-10 3 -15z m-434 -145 c0 -2 -9 -4 -21 -4 -11 0 -18 4 -14 10 5 8 35 3 35 -6z
m3075 -134 c0 -18 -6 -26 -23 -28 -13 -2 -25 3 -28 12 -10 26 4 48 28 44 17
-2 23 -10 23 -28z m-1450 -125 c19 0 11 -99 -13 -180 -13 -44 -25 -93 -27
-110 -1 -16 -5 -37 -8 -45 -8 -21 -16 -115 -22 -265 -7 -162 -10 -174 -40
-185 -14 -5 -25 -18 -25 -28 0 -10 -9 -27 -20 -37 -11 -10 -20 -26 -20 -36 0
-10 -9 -21 -20 -24 -21 -7 -28 -25 -9 -25 5 0 7 -5 3 -11 -5 -8 -9 -8 -14 1
-6 9 -13 9 -26 2 -14 -8 -23 -7 -34 3 -25 21 -58 28 -62 12 -2 -11 -9 -12 -28
-4 -29 11 -94 9 -98 -4 -6 -16 -22 -10 -23 9 -1 15 -2 15 -6 1 -2 -11 -11 -15
-22 -12 -14 4 -18 -1 -18 -20 0 -22 4 -25 36 -24 41 0 113 -25 119 -42 4 -11
-9 -15 -39 -12 -24 2 -69 -17 -69 -29 0 -6 -6 -17 -13 -24 -16 -17 -114 -28
-123 -15 -3 6 -16 8 -29 5 -15 -4 -25 -1 -29 10 -3 8 -10 13 -15 10 -15 -10
-71 15 -71 32 0 8 -3 12 -7 9 -11 -11 -32 14 -26 30 4 11 3 14 -6 9 -6 -4 -9
-16 -6 -27 7 -20 -18 -28 -30 -9 -3 6 -14 10 -23 10 -23 0 -47 39 -33 53 16
16 13 37 -4 37 -8 0 -15 -9 -15 -20 0 -13 -5 -18 -15 -13 -9 3 -13 8 -11 11 3
3 1 11 -6 19 -8 11 -8 17 2 26 10 9 13 9 17 0 6 -18 33 -16 33 1 0 8 5 18 11
21 6 4 10 1 8 -6 -1 -8 -1 -24 0 -36 1 -20 4 -21 26 -11 19 9 22 14 15 29 -14
26 4 32 25 9 10 -11 25 -20 33 -20 12 0 12 -3 2 -15 -16 -19 -5 -32 13 -16 8
6 32 10 53 10 77 -3 164 12 164 28 0 9 6 13 14 10 10 -4 13 -1 9 9 -3 9 2 14
16 14 12 0 21 6 21 15 0 8 5 15 10 15 6 0 10 11 10 25 0 15 6 25 14 25 8 0 49
25 92 55 44 30 98 64 122 75 23 11 42 25 42 30 0 6 7 10 15 10 23 0 36 44 47
160 14 150 14 165 3 165 -5 0 -9 -14 -7 -31 3 -30 -43 -152 -53 -142 -3 3 1
31 10 64 20 78 19 123 -6 189 -25 66 -21 84 15 78 29 -6 56 11 56 35 0 57 65
143 95 124 5 -4 15 -7 20 -7z m760 -156 c6 -6 5 -16 -3 -29 -6 -11 -12 -25
-12 -31 0 -21 -59 -69 -85 -69 -17 0 -29 9 -40 30 -21 41 -19 53 15 90 28 30
34 32 73 26 23 -4 46 -11 52 -17z m-1145 -51 c-1 -14 -60 -76 -60 -63 0 13 44
75 53 75 4 0 7 -6 7 -12z m165 -76 c-4 -15 -8 -53 -10 -84 -2 -31 -11 -70 -19
-87 -15 -28 -79 -78 -119 -94 -10 -4 -15 -12 -11 -18 4 -8 0 -8 -15 0 -14 8
-21 8 -21 1 0 -5 -7 -10 -15 -10 -8 0 -15 -4 -15 -9 0 -4 -26 -20 -58 -34 -50
-23 -63 -25 -101 -16 -25 5 -51 7 -58 5 -8 -3 -36 5 -64 18 -47 23 -50 23 -44
5 7 -22 -12 -26 -39 -6 -22 16 -13 24 63 56 40 17 65 21 93 17 21 -4 38 -2 38
3 0 5 -5 11 -10 13 -10 3 20 20 144 79 46 22 100 64 173 136 18 18 33 35 33
38 0 3 7 17 16 31 l17 25 14 -21 c10 -14 12 -31 8 -48z m1941 -9 c-10 -10 -19
5 -10 18 6 11 8 11 12 0 2 -7 1 -15 -2 -18z m134 17 c8 -5 11 -12 8 -16 -4 -3
0 -13 8 -21 19 -20 7 -36 -22 -30 -14 2 -27 0 -30 -4 -3 -5 -12 -9 -20 -9 -11
0 -13 6 -9 20 5 14 2 20 -9 20 -26 0 -18 14 17 31 41 21 39 20 57 9z m82 -75
c6 -10 -16 -204 -28 -235 -3 -9 -8 -11 -12 -4 -4 6 -14 14 -22 17 -8 4 -28 16
-45 27 -16 11 -40 24 -52 29 -24 11 -40 31 -24 31 6 0 11 5 11 12 0 6 8 20 18
31 15 18 15 20 0 14 -9 -3 -19 0 -22 9 -3 8 -19 14 -40 14 -22 0 -36 6 -40 16
-5 12 -14 15 -36 10 -32 -6 -39 4 -16 23 18 15 116 -7 116 -26 0 -7 9 -13 20
-13 11 0 20 -6 20 -12 0 -10 3 -9 9 1 5 8 14 10 22 5 17 -10 80 -6 95 7 7 6
10 17 7 26 -4 10 -8 11 -13 3 -4 -7 -17 -9 -34 -4 l-27 6 23 12 c28 14 61 15
70 1z m-3674 -53 c6 -18 -15 -14 -22 4 -4 10 -1 14 6 12 6 -2 14 -10 16 -16z
m-798 -17 c0 -8 -4 -15 -10 -15 -5 0 -10 7 -10 15 0 8 5 15 10 15 6 0 10 -7
10 -15z m3480 5 c0 -5 -5 -10 -11 -10 -5 0 -7 5 -4 10 3 6 8 10 11 10 2 0 4
-4 4 -10z m120 -5 c15 -26 45 -52 51 -43 4 7 9 7 13 0 3 -6 16 -8 29 -4 20 5
21 4 8 -12 -16 -20 -18 -18 36 -44 24 -11 52 -18 63 -15 23 6 42 -32 33 -66
-8 -30 -33 -24 -46 12 -3 9 -13 17 -22 17 -8 0 -15 6 -15 14 0 8 -7 17 -16 20
-11 4 -14 1 -10 -12 5 -14 1 -18 -21 -17 -24 0 -28 4 -28 30 0 23 -5 31 -22
33 -13 2 -23 8 -23 14 0 6 -10 8 -24 4 -20 -5 -23 -3 -19 13 5 18 2 19 -38 10
-31 -7 -44 -7 -50 2 -4 7 -14 9 -23 6 -10 -4 -16 -1 -16 7 0 15 77 19 86 5 8
-14 24 -10 24 6 0 8 -5 15 -11 15 -5 0 -8 4 -5 8 7 11 39 9 46 -3z m615 -27
c26 -12 34 -28 12 -28 -7 0 -20 9 -30 20 -20 23 -17 24 18 8z m-4245 -28 c0
-5 11 -10 23 -10 37 0 63 -35 51 -68 -7 -20 -15 -26 -32 -24 -13 2 -22 -2 -22
-10 0 -9 -3 -9 -10 2 -17 26 -11 48 15 54 30 8 33 26 5 26 -11 0 -20 -4 -20
-10 0 -5 -7 -10 -15 -10 -10 0 -15 10 -15 30 0 17 5 30 10 30 6 0 10 -4 10
-10z m3807 -116 c-3 -3 -12 -4 -19 -1 -8 3 -5 6 6 6 11 1 17 -2 13 -5z m463
-66 c0 -12 -14 -10 -28 4 -19 19 -14 29 8 16 11 -7 20 -16 20 -20z m-46 -13
c-4 -8 -10 -15 -15 -15 -5 0 -9 7 -9 15 0 8 7 15 15 15 9 0 12 -6 9 -15z m84
-19 c6 -13 21 -27 34 -31 58 -16 88 -39 88 -67 0 -36 -18 -45 -26 -13 -3 14
-12 25 -19 25 -7 0 -15 5 -17 11 -2 5 -23 13 -46 16 -45 6 -51 10 -57 44 -9
44 25 55 43 15z m-2814 5 c3 -5 14 -7 24 -4 10 2 24 -3 31 -11 8 -9 19 -16 26
-16 20 0 40 -69 25 -83 -10 -9 -11 -9 -6 0 5 9 0 12 -16 12 -35 -2 -100 30
-105 52 -3 10 -11 19 -18 19 -7 0 -16 7 -19 16 -4 12 -2 15 9 11 8 -4 17 -2
20 3 8 13 22 13 29 1z m2077 -24 c7 -26 -4 -37 -16 -17 -4 6 -15 8 -26 5 -14
-5 -19 -2 -19 14 0 18 22 31 44 27 6 -1 13 -14 17 -29z m118 17 c2 -2 2 -7 -2
-10 -3 -3 -16 2 -29 11 l-23 17 25 -7 c14 -4 27 -9 29 -11z m-2394 -24 c3 -5
13 -10 21 -10 26 0 74 -43 96 -87 26 -51 18 -63 -23 -39 -17 10 -41 16 -55 13
-19 -3 -30 2 -47 24 -11 16 -27 29 -35 29 -9 0 -11 7 -7 23 4 12 9 30 11 40 6
19 29 23 39 7z m735 -7 c0 -11 -51 -33 -61 -27 -17 10 -9 26 10 21 10 -2 25
-1 32 4 17 11 19 11 19 2z m-110 -12 c0 -6 -4 -13 -10 -16 -5 -3 -10 1 -10 9
0 9 5 16 10 16 6 0 10 -4 10 -9z m2291 -3 c1 -7 1 -17 0 -21 -1 -5 7 -6 17 -3
11 4 24 0 32 -9 10 -12 24 -14 61 -9 51 7 66 -6 30 -25 -10 -6 -21 -24 -23
-41 -4 -25 -1 -30 16 -30 21 -1 21 -1 2 -15 -11 -8 -28 -13 -38 -9 -10 3 -18
1 -18 -5 0 -18 -29 -12 -50 9 -11 11 -24 20 -30 20 -5 0 -19 9 -30 20 -24 24
-24 117 0 124 27 7 30 6 31 -6z m-596 -28 c11 9 26 6 67 -13 29 -14 62 -28 73
-31 28 -9 87 -65 80 -76 -6 -10 -11 -9 -105 27 -97 38 -140 70 -139 103 1 10
3 9 6 -3 4 -14 8 -16 18 -7z m-65 6 c0 -3 -4 -8 -10 -11 -5 -3 -10 -1 -10 4 0
6 5 11 10 11 6 0 10 -2 10 -4z m860 -121 c0 -8 -7 -15 -16 -15 -14 0 -14 3 -4
15 7 8 14 15 16 15 2 0 4 -7 4 -15z m-800 -11 c0 -8 -5 -12 -10 -9 -6 4 -8 11
-5 16 9 14 15 11 15 -7z m-2040 -34 c0 -5 -4 -10 -10 -10 -5 0 -10 5 -10 10 0
6 5 10 10 10 6 0 10 -4 10 -10z m40 -31 c0 -6 -4 -7 -10 -4 -5 3 -10 11 -10
16 0 6 5 7 10 4 6 -3 10 -11 10 -16z m1937 -21 c-3 -7 -5 -2 -5 12 0 14 2 19
5 13 2 -7 2 -19 0 -25z m123 -28 c3 -3 11 -5 18 -6 6 -1 21 -2 32 -2 31 -3 24
-22 -8 -22 -16 0 -38 -9 -50 -20 l-21 -20 -20 27 c-20 25 -28 63 -15 76 5 5
49 -17 64 -33z m670 29 c0 -6 9 -8 20 -4 24 8 25 -1 5 -46 -12 -28 -14 -30
-15 -11 0 12 -9 30 -20 39 -24 21 -26 33 -5 33 8 0 15 -5 15 -11z m-778 -31
c-6 -6 -15 -8 -19 -4 -4 4 -1 11 7 16 19 12 27 3 12 -12z m26 -37 c3 -8 -1
-12 -9 -9 -7 2 -15 10 -17 17 -3 8 1 12 9 9 7 -2 15 -10 17 -17z m72 -50 c0
-6 -4 -13 -10 -16 -5 -3 -10 1 -10 9 0 9 5 16 10 16 6 0 10 -4 10 -9z m-80
-17 c0 -8 -4 -12 -10 -9 -5 3 -10 10 -10 16 0 5 5 9 10 9 6 0 10 -7 10 -16z
m729 -76 c-17 -46 -35 -95 -41 -110 -5 -16 -13 -28 -16 -28 -16 1 -39 27 -45
52 -8 30 10 49 24 27 7 -12 11 -11 24 2 15 15 15 18 -9 42 -20 20 -26 22 -26
10 0 -26 -13 -6 -15 22 -1 27 14 37 62 41 18 2 41 7 50 13 10 6 19 11 20 11 2
0 -11 -37 -28 -82z m-580 63 c9 -6 10 -10 2 -16 -16 -9 -44 2 -36 15 8 12 16
12 34 1z m120 -158 c-8 -15 -18 -31 -23 -35 -6 -4 -4 -13 4 -22 20 -25 6 -29
-21 -7 -17 14 -20 20 -9 21 13 0 13 1 0 10 -12 8 -12 10 3 16 23 9 22 24 -3
24 -13 0 -20 7 -20 19 0 24 48 33 69 14 13 -11 13 -16 0 -40z m-517 -53 c0 -8
0 -27 -1 -42 -1 -16 2 -28 7 -28 5 0 10 -22 11 -48 0 -26 6 -63 11 -82 11 -40
6 -51 -10 -21 -6 12 -17 21 -24 21 -8 0 -24 9 -37 19 -21 17 -22 22 -11 40 18
31 16 111 -4 111 -11 0 -14 6 -8 23 12 39 23 48 45 34 10 -6 20 -19 21 -27z
m448 10 c0 -5 -2 -10 -4 -10 -3 0 -8 5 -11 10 -3 6 -1 10 4 10 6 0 11 -4 11
-10z m-410 -21 c0 -5 -4 -9 -10 -9 -5 0 -10 7 -10 16 0 8 5 12 10 9 6 -3 10
-10 10 -16z m127 -7 c-9 -10 -14 -32 -12 -53 4 -48 -24 -64 -72 -40 -45 22
-44 33 10 92 15 17 21 18 34 7 13 -11 18 -10 26 4 6 9 15 14 20 11 4 -3 2 -12
-6 -21z m-3836 -245 c-13 -13 -26 -3 -16 12 3 6 11 8 17 5 6 -4 6 -10 -1 -17z
m-63 -13 c36 -3 42 -5 42 -15 0 -7 -15 -8 -40 -5 -22 3 -40 8 -40 11 0 39 0
40 13 25 7 -8 18 -15 25 -16z m144 -2 c7 -26 -26 -46 -52 -32 -27 14 -25 38 3
43 41 8 45 7 49 -11z m-218 2 c26 -10 18 -24 -14 -24 -29 0 -38 9 -23 23 8 9
17 9 37 1z m-80 -22 c8 -13 -11 -35 -23 -28 -16 10 -14 36 3 36 8 0 17 -4 20
-8z m-261 -23 c-6 -6 -9 -17 -7 -24 4 -9 -3 -11 -21 -8 -49 10 -44 43 8 43 23
0 28 -3 20 -11z m637 1 c0 -5 -5 -10 -11 -10 -5 0 -7 5 -4 10 3 6 8 10 11 10
2 0 4 -4 4 -10z m-1136 -26 c-14 -12 -16 -17 -6 -21 10 -4 5 -14 -18 -34 -25
-23 -28 -30 -16 -34 9 -3 23 -7 32 -10 21 -7 14 -49 -9 -53 -24 -5 -64 32 -70
66 -4 21 2 35 31 65 20 20 45 37 56 37 20 0 20 0 0 -16z m863 10 c-3 -3 -12
-4 -19 -1 -8 3 -5 6 6 6 11 1 17 -2 13 -5z m-810 -50 c-9 -9 -28 6 -21 18 4 6
10 6 17 -1 6 -6 8 -13 4 -17z m4619 -17 c-2 -12 -7 -30 -11 -39 -5 -11 -3 -18
5 -18 9 0 11 -16 6 -62 -4 -35 -9 -64 -11 -66 -2 -2 -17 4 -34 13 -35 17 -38
34 -15 70 9 14 14 31 11 39 -3 8 1 17 9 20 8 3 14 18 14 34 0 16 3 32 6 35 12
12 24 -4 20 -26z m-4546 7 c0 -17 -22 -14 -28 4 -2 7 3 12 12 12 9 0 16 -7 16
-16z m-44 -31 c-7 -7 -26 7 -26 19 0 6 6 6 15 -2 9 -7 13 -15 11 -17z m107
-76 c6 -44 0 -54 -39 -73 -32 -15 -74 -12 -74 7 0 5 -11 9 -25 9 -14 0 -28 7
-32 15 -9 26 3 27 46 6 56 -29 73 -26 28 4 -50 34 -49 55 3 55 21 0 45 6 52
14 18 19 35 3 41 -37z m-143 33 c0 -5 -4 -10 -10 -10 -5 0 -10 5 -10 10 0 6 5
10 10 10 6 0 10 -4 10 -10z m4710 -30 c0 -5 -7 -10 -16 -10 -8 0 -12 5 -9 10
3 6 10 10 16 10 5 0 9 -4 9 -10z m-4853 -26 c-7 -7 -37 7 -37 17 0 6 9 5 21
-1 11 -7 19 -14 16 -16z m703 6 c0 -5 -4 -10 -10 -10 -5 0 -10 5 -10 10 0 6 5
10 10 10 6 0 10 -4 10 -10z m-610 -10 c11 -7 12 -12 3 -21 -15 -15 -47 -7 -51
14 -4 19 23 23 48 7z m-190 -10 c0 -5 -5 -10 -11 -10 -5 0 -7 5 -4 10 3 6 8
10 11 10 2 0 4 -4 4 -10z m28 -19 c-10 -17 -10 -25 0 -41 14 -23 8 -40 -14
-40 -20 0 -19 74 2 95 21 21 29 13 12 -14z m-48 -21 c8 -5 11 -10 5 -10 -5 0
-17 5 -25 10 -8 5 -10 10 -5 10 6 0 17 -5 25 -10z m4868 -22 c7 -7 12 -26 12
-44 0 -24 -5 -33 -22 -39 -22 -7 -22 -7 -3 -12 37 -10 48 -59 19 -87 -18 -18
-95 -22 -124 -6 -19 10 -19 12 4 53 13 23 32 66 41 95 14 42 22 52 39 52 12 0
27 -5 34 -12z m-4889 -35 c-13 -16 -25 -30 -26 -32 -2 -2 -3 10 -3 27 0 28 3
32 27 32 l26 0 -24 -27z m121 -27 c0 -3 -4 -8 -10 -11 -5 -3 -10 -1 -10 4 0 6
5 11 10 11 6 0 10 -2 10 -4z m-50 -51 c0 -8 -4 -15 -10 -15 -5 0 -10 7 -10 15
0 8 5 15 10 15 6 0 10 -7 10 -15z m30 -35 c0 -5 -2 -10 -4 -10 -3 0 -8 5 -11
10 -3 6 -1 10 4 10 6 0 11 -4 11 -10z m1097 -27 c-8 -7 -37 9 -31 19 3 5 12 4
20 -3 8 -6 13 -14 11 -16z m1458 7 c3 -5 15 -10 26 -10 10 0 19 -4 19 -10 0
-11 -19 -12 -72 -4 -42 7 -50 20 -15 27 12 2 25 5 29 6 4 0 10 -3 13 -9z m180
-100 c3 -5 1 -10 -4 -10 -6 0 -11 5 -11 10 0 6 2 10 4 10 3 0 8 -4 11 -10z
m45 -301 c0 -6 9 -8 20 -4 22 7 70 -33 70 -60 0 -16 -27 -20 -49 -6 -11 7 -10
11 5 19 15 9 17 13 7 23 -10 10 -16 10 -25 1 -16 -16 -28 -15 -28 3 0 8 -4 15
-10 15 -5 0 -10 5 -10 10 0 6 5 10 10 10 6 0 10 -5 10 -11z m-930 -94 c0 -9
-6 -12 -15 -9 -8 4 -15 10 -15 15 0 5 7 9 15 9 8 0 15 -7 15 -15z m1010 -15
c0 -5 -5 -10 -11 -10 -5 0 -7 5 -4 10 3 6 8 10 11 10 2 0 4 -4 4 -10z m16
-247 c10 -15 9 -23 -4 -45 -20 -34 -32 -36 -30 -4 1 15 7 22 15 19 7 -3 13 2
13 11 0 9 -4 16 -10 16 -5 0 -10 5 -10 10 0 15 11 12 26 -7z"/>
<path d="M3670 5239 c0 -5 5 -7 10 -4 6 3 10 8 10 11 0 2 -4 4 -10 4 -5 0 -10
-5 -10 -11z"/>
<path d="M3440 5229 c0 -5 5 -7 10 -4 6 3 10 8 10 11 0 2 -4 4 -10 4 -5 0 -10
-5 -10 -11z"/>
<path d="M3370 5200 c-14 -11 -33 -20 -42 -20 -10 0 -18 -4 -18 -10 0 -5 7
-10 16 -10 23 0 94 42 88 52 -8 12 -16 10 -44 -12z"/>
<path d="M3855 5200 c-3 -5 -1 -10 4 -10 6 0 11 5 11 10 0 6 -2 10 -4 10 -3 0
-8 -4 -11 -10z"/>
<path d="M3210 5190 c0 -5 4 -10 9 -10 6 0 13 5 16 10 3 6 -1 10 -9 10 -9 0
-16 -4 -16 -10z"/>
<path d="M3818 5193 c-24 -6 -23 -23 2 -23 11 0 20 7 20 15 0 8 -1 14 -2 14
-2 -1 -11 -3 -20 -6z"/>
<path d="M4020 5065 c0 -8 2 -15 4 -15 2 0 6 7 10 15 3 8 1 15 -4 15 -6 0 -10
-7 -10 -15z"/>
<path d="M4026 5032 c-3 -6 -1 -14 5 -17 14 -9 20 -2 10 14 -6 8 -11 9 -15 3z"/>
<path d="M2960 4470 c0 -5 4 -10 9 -10 6 0 13 5 16 10 3 6 -1 10 -9 10 -9 0
-16 -4 -16 -10z"/>
<path d="M2840 4100 c0 -5 5 -10 10 -10 6 0 10 5 10 10 0 6 -4 10 -10 10 -5 0
-10 -4 -10 -10z"/>
<path d="M3755 3780 c-3 -5 -1 -10 4 -10 6 0 11 5 11 10 0 6 -2 10 -4 10 -3 0
-8 -4 -11 -10z"/>
<path d="M3845 3669 c-4 -6 -5 -13 -2 -16 8 -7 47 7 47 18 0 13 -37 11 -45 -2z"/>
<path d="M4515 3624 c14 -20 25 -41 25 -45 0 -5 5 -9 10 -9 20 0 9 47 -15 68
-38 33 -47 26 -20 -14z"/>
<path d="M2907 3465 c-4 -8 -1 -17 5 -21 7 -4 8 -3 4 4 -4 7 -2 12 3 12 6 0
11 5 11 10 0 15 -17 12 -23 -5z"/>
<path d="M4100 3434 c0 -8 5 -12 10 -9 6 4 8 11 5 16 -9 14 -15 11 -15 -7z"/>
<path d="M3855 3421 c-3 -5 -1 -12 5 -16 5 -3 10 1 10 9 0 18 -6 21 -15 7z"/>
<path d="M4130 3420 c0 -5 5 -10 10 -10 6 0 10 5 10 10 0 6 -4 10 -10 10 -5 0
-10 -4 -10 -10z"/>
<path d="M5763 5183 c-50 -10 -3 -33 65 -33 24 0 25 1 7 20 -18 20 -28 22 -72
13z"/>
<path d="M6645 3100 c-3 -5 1 -10 9 -10 9 0 16 5 16 10 0 6 -4 10 -9 10 -6 0
-13 -4 -16 -10z"/>
<path d="M6727 2960 c-3 -11 -2 -20 3 -20 4 0 10 9 13 20 3 11 2 20 -3 20 -4
0 -10 -9 -13 -20z"/>
<path d="M6669 2897 c5 -5 19 -7 32 -5 20 3 19 5 -9 9 -20 3 -29 2 -23 -4z"/>
<path d="M900 1599 c0 -5 5 -7 10 -4 6 3 10 8 10 11 0 2 -4 4 -10 4 -5 0 -10
-5 -10 -11z"/>
<path d="M5680 2240 c0 -5 5 -10 11 -10 5 0 7 5 4 10 -3 6 -8 10 -11 10 -2 0
-4 -4 -4 -10z"/>
<path d="M5800 2111 c0 -12 6 -21 15 -21 8 0 15 4 15 9 0 5 -7 14 -15 21 -13
10 -15 9 -15 -9z"/>
<path d="M1216 1794 c-9 -24 -8 -24 27 -23 17 1 24 3 15 6 -10 2 -15 10 -11
19 3 8 -1 14 -10 14 -8 0 -18 -7 -21 -16z"/>
<path d="M1140 1781 c0 -12 6 -21 16 -21 9 0 14 7 12 17 -5 25 -28 28 -28 4z"/>
<path d="M5720 1758 c0 -19 2 -20 10 -8 13 19 13 30 0 30 -5 0 -10 -10 -10
-22z"/>
<path d="M5815 1700 c-14 -15 -21 -17 -31 -9 -14 11 -15 10 -26 -31 -3 -8 8
-21 26 -31 28 -15 33 -15 49 -1 21 19 22 32 1 32 -14 0 -14 2 0 22 28 40 13
54 -19 18z m-5 -50 c0 -5 -4 -10 -10 -10 -5 0 -10 5 -10 10 0 6 5 10 10 10 6
0 10 -4 10 -10z"/>
<path d="M1880 1690 c0 -5 5 -10 10 -10 6 0 10 5 10 10 0 6 -4 10 -10 10 -5 0
-10 -4 -10 -10z"/>
<path d="M5901 1642 c-6 -12 -11 -27 -11 -34 0 -8 -16 -20 -35 -27 -27 -9 -35
-18 -35 -36 0 -13 4 -26 9 -30 12 -7 61 15 62 29 1 6 2 18 3 26 0 8 9 14 18
12 14 -2 16 4 15 32 -3 44 -12 54 -26 28z"/>
<path d="M6276 1605 c-9 -14 -23 -37 -32 -52 l-16 -28 20 24 c24 29 55 81 49
81 -3 0 -12 -11 -21 -25z"/>
<path d="M1775 1610 c-8 -13 5 -13 25 0 13 8 13 10 -2 10 -9 0 -20 -4 -23 -10z"/>
<path d="M1888 1613 c-10 -3 -18 -8 -18 -13 0 -16 15 -18 33 -5 20 14 12 24
-15 18z"/>
<path d="M1708 1583 c6 -2 18 -2 25 0 6 3 1 5 -13 5 -14 0 -19 -2 -12 -5z"/>
<path d="M6199 1488 c-13 -18 -34 -49 -48 -67 -14 -19 -21 -32 -15 -29 12 8
98 128 90 128 -2 0 -15 -15 -27 -32z"/>
<path d="M1920 1461 c0 -5 -10 -11 -22 -14 -22 -3 -22 -4 -4 -12 13 -6 21 -5
24 3 2 7 10 12 17 12 8 0 17 5 20 10 3 6 -3 10 -14 10 -12 0 -21 -4 -21 -9z"/>
<path d="M1985 1440 c-4 -6 -12 -10 -18 -9 -24 3 -37 -1 -37 -12 0 -8 13 -9
39 -5 35 5 39 4 34 -13 -4 -16 0 -18 22 -13 25 4 26 3 16 -15 -5 -11 -8 -23
-5 -26 7 -7 44 4 44 13 0 5 8 16 18 26 16 17 16 17 -5 12 -18 -5 -23 -2 -23
13 0 16 -5 18 -25 13 -20 -5 -24 -3 -19 10 4 11 0 16 -14 16 -12 0 -24 -5 -27
-10z"/>
<path d="M1210 1389 c0 -5 5 -7 10 -4 6 3 10 8 10 11 0 2 -4 4 -10 4 -5 0 -10
-5 -10 -11z"/>
<path d="M6109 1363 c-13 -16 -12 -17 4 -4 9 7 17 15 17 17 0 8 -8 3 -21 -13z"/>
<path d="M6019 1253 c-40 -49 -65 -81 -55 -73 21 16 140 160 133 160 -3 0 -38
-39 -78 -87z"/>
<path d="M2005 1306 c-13 -9 -15 -15 -6 -20 6 -4 8 -12 5 -18 -5 -7 5 -9 31
-4 25 5 35 4 30 -3 -3 -6 -1 -11 4 -11 6 0 11 5 11 11 0 5 10 9 22 7 11 -2 23
3 25 10 3 6 0 12 -6 12 -6 0 -11 7 -11 15 0 18 -31 20 -48 3 -8 -8 -15 -8 -25
0 -10 9 -18 8 -32 -2z"/>
<path d="M2016 1204 c-21 -20 -12 -34 22 -34 25 1 26 2 8 15 -10 7 -15 18 -11
24 9 16 -1 13 -19 -5z"/>
<path d="M3730 1180 c0 -5 9 -10 21 -10 11 0 17 5 14 10 -3 6 -13 10 -21 10
-8 0 -14 -4 -14 -10z"/>
<path d="M5807 1023 c-135 -133 -138 -136 -157 -118 -14 12 -17 21 -9 25 7 5
5 9 -6 14 -9 3 -13 10 -10 16 3 5 2 10 -2 10 -11 0 -33 -59 -33 -88 0 -13 6
-22 15 -22 23 0 18 -10 -22 -47 -27 -25 -22 -22 17 8 53 42 360 339 350 339
-3 0 -67 -62 -143 -137z"/>
<path d="M2035 1140 c3 -5 8 -10 11 -10 2 0 4 5 4 10 0 6 -5 10 -11 10 -5 0
-7 -4 -4 -10z"/>
<path d="M5620 1106 c0 -9 7 -16 16 -16 9 0 14 5 12 12 -6 18 -28 21 -28 4z"/>
<path d="M5741 1086 c-7 -9 -8 -17 -2 -20 13 -9 43 4 38 17 -5 17 -23 19 -36
3z"/>
<path d="M2190 1054 c0 -11 -6 -15 -20 -11 -11 3 -20 1 -20 -3 0 -13 42 -40
52 -34 12 7 10 64 -2 64 -5 0 -10 -7 -10 -16z"/>
<path d="M1930 1014 c0 -8 5 -12 10 -9 6 3 10 10 10 16 0 5 -4 9 -10 9 -5 0
-10 -7 -10 -16z"/>
<path d="M1977 1013 c-4 -3 -7 -11 -7 -17 0 -6 5 -5 12 2 6 6 9 14 7 17 -3 3
-9 2 -12 -2z"/>
<path d="M5610 1000 c0 -5 5 -10 10 -10 6 0 10 5 10 10 0 6 -4 10 -10 10 -5 0
-10 -4 -10 -10z"/>
<path d="M1990 980 c0 -5 5 -10 11 -10 5 0 7 5 4 10 -3 6 -8 10 -11 10 -2 0
-4 -4 -4 -10z"/>
<path d="M1936 948 c6 -29 28 -73 44 -88 20 -19 49 -71 55 -100 4 -19 13 -44
20 -55 7 -11 23 -55 36 -97 13 -43 28 -77 33 -75 5 2 15 18 21 37 20 60 43 43
46 -35 0 -16 3 -24 6 -17 2 6 8 12 12 12 14 0 -1 -115 -18 -134 -12 -14 -13
-20 -3 -23 6 -3 12 -12 12 -21 1 -15 2 -15 14 1 17 22 36 22 36 -1 0 -21 -38
-42 -75 -42 -14 0 -25 -5 -25 -11 0 -12 90 -6 112 7 7 4 9 28 5 65 -3 37 -1
59 6 62 6 2 0 18 -15 38 -14 19 -31 52 -38 74 -7 22 -15 45 -19 50 -15 24 9
85 33 85 8 0 16 8 19 19 3 15 -4 21 -34 31 -43 15 -47 21 -23 41 12 10 20 10
34 2 19 -13 61 -6 72 11 14 20 8 53 -11 70 -17 16 -18 16 -14 -6 6 -31 -34
-79 -47 -58 -5 8 -23 14 -44 13 -20 -1 -36 3 -36 7 0 4 -18 6 -40 3 -43 -6
-52 6 -26 33 18 18 26 18 26 0 0 -10 7 -11 34 -2 19 6 32 14 29 19 -3 5 -1 12
5 16 7 4 4 11 -9 19 -17 11 -20 10 -17 -4 2 -9 -3 -19 -9 -21 -7 -3 -13 -1
-13 4 0 4 -4 14 -9 21 -7 11 -12 11 -28 1 -24 -15 -55 -5 -47 15 3 8 15 17 27
20 21 6 21 7 -8 21 -23 13 -34 14 -51 4 -23 -12 -64 -4 -64 12 0 5 -5 9 -11 9
-7 0 -8 -11 -3 -32z"/>
<path d="M2200 900 c0 -5 4 -10 9 -10 6 0 13 5 16 10 3 6 -1 10 -9 10 -9 0
-16 -4 -16 -10z"/>
<path d="M1190 855 c19 -19 36 -35 39 -35 3 0 -10 16 -29 35 -19 19 -36 35
-39 35 -3 0 10 -16 29 -35z"/>
<path d="M2251 844 c0 -11 3 -14 6 -6 3 7 2 16 -1 19 -3 4 -6 -2 -5 -13z"/>
<path d="M1255 800 c10 -11 20 -20 23 -20 3 0 -3 9 -13 20 -10 11 -20 20 -23
20 -3 0 3 -9 13 -20z"/>
<path d="M1293 773 c9 -14 87 -77 87 -70 0 3 -21 22 -47 43 -26 21 -44 33 -40
27z"/>
<path d="M3835 770 c-3 -5 1 -10 9 -10 9 0 16 5 16 10 0 6 -4 10 -9 10 -6 0
-13 -4 -16 -10z"/>
<path d="M5514 758 l-19 -23 23 19 c12 11 22 21 22 23 0 8 -8 2 -26 -19z"/>
<path d="M3881 733 c6 -7 21 -13 32 -13 16 0 18 3 9 12 -6 6 -21 12 -32 13
-15 1 -17 -1 -9 -12z"/>
<path d="M5459 713 c-13 -16 -12 -17 4 -4 16 13 21 21 13 21 -2 0 -10 -8 -17
-17z"/>
<path d="M4035 676 c-24 -10 -26 -13 -12 -19 9 -3 19 -2 23 4 3 6 12 8 20 5 8
-3 14 -1 14 4 0 16 -15 18 -45 6z"/>
<path d="M2240 670 c-13 -9 -13 -11 0 -20 27 -17 42 -12 30 10 -12 23 -11 23
-30 10z"/>
<path d="M2324 628 c-12 -41 -44 -48 -73 -17 -12 13 -21 18 -21 11 0 -21 149
-152 173 -152 4 0 7 13 7 29 0 16 6 32 13 34 6 3 -3 6 -20 6 -22 1 -33 6 -33
15 0 8 -4 16 -10 18 -5 2 -11 20 -13 40 -5 51 -12 55 -23 16z"/>
<path d="M1515 605 c11 -9 29 -21 40 -26 l20 -10 -20 16 c-11 9 -29 21 -40 26
l-20 10 20 -16z"/>
<path d="M2440 558 c0 -13 12 -21 63 -46 4 -2 7 1 7 7 0 7 -8 14 -17 18 -10 3
-26 13 -35 21 -16 13 -18 13 -18 0z"/>
<path d="M4031 541 c-8 -14 -7 -22 3 -30 7 -6 16 -8 20 -4 4 4 11 1 16 -7 8
-13 10 -12 10 3 0 23 -18 57 -30 57 -5 0 -14 -9 -19 -19z"/>
<path d="M1625 535 c11 -9 29 -21 40 -26 l20 -10 -20 16 c-11 9 -29 21 -40 26
l-20 10 20 -16z"/>
<path d="M1690 495 c0 -2 18 -14 40 -25 22 -11 40 -18 40 -15 0 2 -18 14 -40
25 -22 11 -40 18 -40 15z"/>
<path d="M4005 490 c3 -5 11 -10 16 -10 6 0 7 5 4 10 -3 6 -11 10 -16 10 -6 0
-7 -4 -4 -10z"/>
<path d="M2445 481 c-3 -6 1 -11 9 -11 20 0 23 -7 35 -78 10 -60 30 -105 60
-129 8 -7 12 -15 9 -19 -4 -3 -26 13 -51 35 -41 38 -66 49 -79 35 -11 -10 25
-62 54 -79 15 -9 28 -23 28 -31 0 -20 17 -17 41 7 11 11 22 19 23 17 50 -76
65 -105 58 -112 -3 -3 2 -6 11 -6 10 0 17 5 17 11 0 5 5 7 10 4 6 -4 8 -10 5
-14 -2 -5 9 -11 27 -15 36 -7 53 2 20 10 -23 7 -86 85 -117 147 -12 22 -27 37
-38 37 -11 0 -17 5 -14 13 2 6 10 11 16 10 6 -2 11 2 11 7 0 6 -9 10 -20 10
-11 0 -22 6 -24 13 -2 6 -8 21 -12 32 -4 11 -15 40 -24 65 -16 43 -41 62 -55
41z"/>
<path d="M1780 445 c0 -3 54 -32 120 -65 66 -33 120 -58 120 -55 0 3 -54 32
-120 65 -66 33 -120 58 -120 55z"/>
<path d="M2430 440 c0 -5 7 -10 16 -10 8 0 12 5 9 10 -3 6 -10 10 -16 10 -5 0
-9 -4 -9 -10z"/>
<path d="M2280 404 c0 -8 5 -12 10 -9 6 4 8 11 5 16 -9 14 -15 11 -15 -7z"/>
<path d="M4036 375 c4 -8 10 -12 15 -9 14 8 10 24 -6 24 -9 0 -12 -6 -9 -15z"/>
<path d="M2285 370 c-3 -5 1 -10 10 -10 9 0 13 5 10 10 -3 6 -8 10 -10 10 -2
0 -7 -4 -10 -10z"/>
<path d="M2058 326 c-16 -12 -16 -14 8 -24 35 -17 44 -14 14 3 -19 11 -21 14
-7 15 9 0 17 5 17 10 0 13 -11 12 -32 -4z"/>
<path d="M2300 320 c0 -5 5 -10 10 -10 6 0 10 5 10 10 0 6 -4 10 -10 10 -5 0
-10 -4 -10 -10z"/>
<path d="M4790 320 c-8 -5 -10 -10 -5 -10 6 0 17 5 25 10 8 5 11 10 5 10 -5 0
-17 -5 -25 -10z"/>
<path d="M2313 278 c3 -13 9 -34 13 -47 6 -21 4 -23 -17 -17 -14 3 -10 -1 10
-10 18 -8 38 -13 45 -10 6 2 3 5 -6 5 -23 1 -23 10 -1 26 15 11 14 14 -10 30
-22 14 -25 20 -16 31 9 11 8 14 -6 14 -13 0 -16 -6 -12 -22z"/>
<path d="M4720 290 c-8 -5 -10 -10 -5 -10 6 0 17 5 25 10 8 5 11 10 5 10 -5 0
-17 -5 -25 -10z"/>
<path d="M2250 265 c0 -22 -3 -25 -22 -20 -29 8 -3 -9 28 -19 18 -6 20 -3 16
24 -6 39 -22 50 -22 15z"/>
<path d="M2630 284 c0 -3 10 -19 23 -34 12 -15 44 -59 71 -98 l48 -69 70 -13
c38 -6 72 -9 75 -6 4 3 -4 6 -16 6 -13 0 -25 9 -30 23 -5 12 -38 40 -75 61
-36 21 -66 44 -66 50 -1 18 -42 60 -73 73 -15 7 -27 10 -27 7z"/>
<path d="M2140 270 c8 -5 20 -10 25 -10 6 0 3 5 -5 10 -8 5 -19 10 -25 10 -5
0 -3 -5 5 -10z"/>
<path d="M2785 200 c3 -5 11 -10 16 -10 6 0 7 5 4 10 -3 6 -11 10 -16 10 -6 0
-7 -4 -4 -10z"/>
<path d="M2478 153 c7 -3 16 -2 19 1 4 3 -2 6 -13 5 -11 0 -14 -3 -6 -6z"/>
<path d="M4088 93 c6 -2 18 -2 25 0 6 3 1 5 -13 5 -14 0 -19 -2 -12 -5z"/>
<path d="M4038 83 c7 -3 16 -2 19 1 4 3 -2 6 -13 5 -11 0 -14 -3 -6 -6z"/>
<path d="M3988 73 c7 -3 16 -2 19 1 4 3 -2 6 -13 5 -11 0 -14 -3 -6 -6z"/>
<path d="M3923 63 c9 -2 23 -2 30 0 6 3 -1 5 -18 5 -16 0 -22 -2 -12 -5z"/>
<path d="M2963 53 c9 -2 23 -2 30 0 6 3 -1 5 -18 5 -16 0 -22 -2 -12 -5z"/>
<path d="M3848 53 c6 -2 18 -2 25 0 6 3 1 5 -13 5 -14 0 -19 -2 -12 -5z"/>
<path d="M3038 43 c12 -2 32 -2 45 0 12 2 2 4 -23 4 -25 0 -35 -2 -22 -4z"/>
<path d="M3763 43 c9 -2 25 -2 35 0 9 3 1 5 -18 5 -19 0 -27 -2 -17 -5z"/>
<path d="M3638 33 c12 -2 32 -2 45 0 12 2 2 4 -23 4 -25 0 -35 -2 -22 -4z"/>
</g>
</svg>
